dataset
version=1
nRows=28
nColumns=39
inDegrees=no
endheader
time	sternoclavicular_r2	sternoclavicular_r3	unrotscap_r3	unrotscap_r2	acromioclavicular_r2	acromioclavicular_r3	acromioclavicular_r1	unrothum_r1	unrothum_r3	unrothum_r2	elv_angle	shoulder_elv	shoulder1_r2	shoulder_rot	elbow_flexion	pro_sup	deviation	flexion	cmc_abduction	cmc_flexion	mp_flexion	ip_flexion	mcp2_flexion	mcp2_abduction	pm2_flexion	md2_flexion	mcp3_flexion	mcp3_abduction	pm3_flexion	md3_flexion	mcp4_flexion	mcp4_abduction	pm4_flexion	md4_flexion	mcp5_flexion	mcp5_abduction	pm5_flexion	md5_flexion
2.600000	0.004073	-0.543459	0.435135	0.120033	0.021872	0.498215	-0.097573	0.184369	-0.070202	0.042944	0.026679	0.027437	0.146525	0.146525	1.050968	4.390153	0.000000	0.000000	0.000000	0.000000	0.000000	0.000000	0.000000	0.000000	0.000000	0.000000	0.000000	0.000000	0.000000	0.000000	0.000000	0.000000	0.000000	0.000000	0.000000	0.000000	0.000000	0.000000
2.605000	0.004020	-0.543331	0.434746	0.120183	0.022043	0.498102	-0.097160	0.184040	-0.069906	0.043054	0.026817	0.027437	0.146525	0.146525	1.050588	4.391899	0.000000	0.000000	0.000000	0.000000	0.000000	0.000000	0.000000	0.000000	0.000000	0.000000	0.000000	0.000000	0.000000	0.000000	0.000000	0.000000	0.000000	0.000000	0.000000	0.000000	0.000000	0.000000
2.610000	0.003965	-0.543202	0.434364	0.120335	0.022217	0.497987	-0.096754	0.183711	-0.069616	0.043168	0.026958	0.027437	0.146525	0.146525	1.050223	4.393570	0.000000	0.000000	0.000000	0.000000	0.000000	0.000000	0.000000	0.000000	0.000000	0.000000	0.000000	0.000000	0.000000	0.000000	0.000000	0.000000	0.000000	0.000000	0.000000	0.000000	0.000000	0.000000
2.615000	0.003908	-0.543075	0.433988	0.120488	0.022393	0.497869	-0.096355	0.183383	-0.069331	0.043287	0.027102	0.027437	0.146525	0.146525	1.049872	4.395171	0.000000	0.000000	0.000000	0.000000	0.000000	0.000000	0.000000	0.000000	0.000000	0.000000	0.000000	0.000000	0.000000	0.000000	0.000000	0.000000	0.000000	0.000000	0.000000	0.000000	0.000000	0.000000
2.620000	0.003848	-0.542948	0.433618	0.120643	0.022571	0.497749	-0.095964	0.183057	-0.069052	0.043411	0.027248	0.027437	0.146525	0.146525	1.049535	4.396703	0.000000	0.000000	0.000000	0.000000	0.000000	0.000000	0.000000	0.000000	0.000000	0.000000	0.000000	0.000000	0.000000	0.000000	0.000000	0.000000	0.000000	0.000000	0.000000	0.000000	0.000000	0.000000
2.625000	0.003785	-0.542821	0.433254	0.120800	0.022751	0.497626	-0.095580	0.182731	-0.068779	0.043541	0.027398	0.027437	0.146525	0.146525	1.049213	4.398170	0.000000	0.000000	0.000000	0.000000	0.000000	0.000000	0.000000	0.000000	0.000000	0.000000	0.000000	0.000000	0.000000	0.000000	0.000000	0.000000	0.000000	0.000000	0.000000	0.000000	0.000000	0.000000
2.630000	0.003719	-0.542695	0.432897	0.120958	0.022934	0.497501	-0.095204	0.182405	-0.068511	0.043675	0.027552	0.027437	0.146525	0.146525	1.048905	4.399574	0.000000	0.000000	0.000000	0.000000	0.000000	0.000000	0.000000	0.000000	0.000000	0.000000	0.000000	0.000000	0.000000	0.000000	0.000000	0.000000	0.000000	0.000000	0.000000	0.000000	0.000000	0.000000
2.635000	0.003651	-0.542569	0.432546	0.121118	0.023118	0.497373	-0.094836	0.182081	-0.068249	0.043815	0.027708	0.027437	0.146525	0.146525	1.048611	4.400918	0.000000	0.000000	0.000000	0.000000	0.000000	0.000000	0.000000	0.000000	0.000000	0.000000	0.000000	0.000000	0.000000	0.000000	0.000000	0.000000	0.000000	0.000000	0.000000	0.000000	0.000000	0.000000
2.640000	0.003580	-0.542443	0.432201	0.121279	0.023305	0.497243	-0.094476	0.181758	-0.067992	0.043959	0.027867	0.027437	0.146525	0.146525	1.048332	4.402204	0.000000	0.000000	0.000000	0.000000	0.000000	0.000000	0.000000	0.000000	0.000000	0.000000	0.000000	0.000000	0.000000	0.000000	0.000000	0.000000	0.000000	0.000000	0.000000	0.000000	0.000000	0.000000
2.645000	0.003506	-0.542318	0.431863	0.121442	0.023495	0.497111	-0.094124	0.181435	-0.067742	0.044109	0.028029	0.027437	0.146525	0.146525	1.048067	4.403435	0.000000	0.000000	0.000000	0.000000	0.000000	0.000000	0.000000	0.000000	0.000000	0.000000	0.000000	0.000000	0.000000	0.000000	0.000000	0.000000	0.000000	0.000000	0.000000	0.000000	0.000000	0.000000
2.650000	0.003429	-0.542192	0.431532	0.121606	0.023686	0.496976	-0.093779	0.181114	-0.067497	0.044264	0.028194	0.027437	0.146525	0.146525	1.047815	4.404612	0.000000	0.000000	0.000000	0.000000	0.000000	0.000000	0.000000	0.000000	0.000000	0.000000	0.000000	0.000000	0.000000	0.000000	0.000000	0.000000	0.000000	0.000000	0.000000	0.000000	0.000000	0.000000
2.655000	0.003350	-0.542067	0.431207	0.121771	0.023879	0.496839	-0.093443	0.180793	-0.067257	0.044424	0.028362	0.027437	0.146525	0.146525	1.047578	4.405739	0.000000	0.000000	0.000000	0.000000	0.000000	0.000000	0.000000	0.000000	0.000000	0.000000	0.000000	0.000000	0.000000	0.000000	0.000000	0.000000	0.000000	0.000000	0.000000	0.000000	0.000000	0.000000
2.660000	0.003268	-0.541943	0.430889	0.121938	0.024075	0.496699	-0.093115	0.180474	-0.067024	0.044588	0.028534	0.027437	0.146525	0.146525	1.047354	4.406817	0.000000	0.000000	0.000000	0.000000	0.000000	0.000000	0.000000	0.000000	0.000000	0.000000	0.000000	0.000000	0.000000	0.000000	0.000000	0.000000	0.000000	0.000000	0.000000	0.000000	0.000000	0.000000
2.665000	0.003183	-0.541818	0.430578	0.122107	0.024272	0.496558	-0.092795	0.180155	-0.066796	0.044758	0.028708	0.027437	0.146525	0.146525	1.047144	4.407848	0.000000	0.000000	0.000000	0.000000	0.000000	0.000000	0.000000	0.000000	0.000000	0.000000	0.000000	0.000000	0.000000	0.000000	0.000000	0.000000	0.000000	0.000000	0.000000	0.000000	0.000000	0.000000
2.670000	0.003096	-0.541693	0.430274	0.122276	0.024471	0.496414	-0.092483	0.179837	-0.066573	0.044932	0.028884	0.027437	0.146525	0.146525	1.046947	4.408834	0.000000	0.000000	0.000000	0.000000	0.000000	0.000000	0.000000	0.000000	0.000000	0.000000	0.000000	0.000000	0.000000	0.000000	0.000000	0.000000	0.000000	0.000000	0.000000	0.000000	0.000000	0.000000
2.675000	0.003006	-0.541569	0.429977	0.122447	0.024672	0.496268	-0.092180	0.179521	-0.066357	0.045111	0.029064	0.027437	0.146525	0.146525	1.046763	4.409777	0.000000	0.000000	0.000000	0.000000	0.000000	0.000000	0.000000	0.000000	0.000000	0.000000	0.000000	0.000000	0.000000	0.000000	0.000000	0.000000	0.000000	0.000000	0.000000	0.000000	0.000000	0.000000
2.680000	0.002913	-0.541445	0.429687	0.122619	0.024874	0.496120	-0.091884	0.179206	-0.066146	0.045295	0.029246	0.027437	0.146525	0.146525	1.046592	4.410680	0.000000	0.000000	0.000000	0.000000	0.000000	0.000000	0.000000	0.000000	0.000000	0.000000	0.000000	0.000000	0.000000	0.000000	0.000000	0.000000	0.000000	0.000000	0.000000	0.000000	0.000000	0.000000
2.685000	0.002818	-0.541321	0.429404	0.122791	0.025078	0.495971	-0.091597	0.178892	-0.065940	0.045482	0.029431	0.027437	0.146525	0.146525	1.046433	4.411542	0.000000	0.000000	0.000000	0.000000	0.000000	0.000000	0.000000	0.000000	0.000000	0.000000	0.000000	0.000000	0.000000	0.000000	0.000000	0.000000	0.000000	0.000000	0.000000	0.000000	0.000000	0.000000
2.690000	0.002721	-0.541197	0.429128	0.122965	0.025284	0.495819	-0.091319	0.178579	-0.065740	0.045675	0.029618	0.027437	0.146525	0.146525	1.046287	4.412367	0.000000	0.000000	0.000000	0.000000	0.000000	0.000000	0.000000	0.000000	0.000000	0.000000	0.000000	0.000000	0.000000	0.000000	0.000000	0.000000	0.000000	0.000000	0.000000	0.000000	0.000000	0.000000
2.695000	0.002621	-0.541073	0.428859	0.123140	0.025490	0.495666	-0.091048	0.178268	-0.065546	0.045871	0.029807	0.027437	0.146525	0.146525	1.046152	4.413156	0.000000	0.000000	0.000000	0.000000	0.000000	0.000000	0.000000	0.000000	0.000000	0.000000	0.000000	0.000000	0.000000	0.000000	0.000000	0.000000	0.000000	0.000000	0.000000	0.000000	0.000000	0.000000
2.700000	0.002519	-0.540950	0.428598	0.123315	0.025698	0.495512	-0.090787	0.177958	-0.065357	0.046071	0.029999	0.027437	0.146525	0.146525	1.046028	4.413910	0.000000	0.000000	0.000000	0.000000	0.000000	0.000000	0.000000	0.000000	0.000000	0.000000	0.000000	0.000000	0.000000	0.000000	0.000000	0.000000	0.000000	0.000000	0.000000	0.000000	0.000000	0.000000
2.705000	0.002415	-0.540827	0.428344	0.123491	0.025907	0.495356	-0.090533	0.177650	-0.065174	0.046275	0.030193	0.027437	0.146525	0.146525	1.045916	4.414631	0.000000	0.000000	0.000000	0.000000	0.000000	0.000000	0.000000	0.000000	0.000000	0.000000	0.000000	0.000000	0.000000	0.000000	0.000000	0.000000	0.000000	0.000000	0.000000	0.000000	0.000000	0.000000
2.710000	0.002309	-0.540704	0.428097	0.123667	0.026117	0.495199	-0.090288	0.177344	-0.064996	0.046483	0.030389	0.027437	0.146525	0.146525	1.045814	4.415321	0.000000	0.000000	0.000000	0.000000	0.000000	0.000000	0.000000	0.000000	0.000000	0.000000	0.000000	0.000000	0.000000	0.000000	0.000000	0.000000	0.000000	0.000000	0.000000	0.000000	0.000000	0.000000
2.715000	0.002200	-0.540582	0.427857	0.123844	0.026328	0.495041	-0.090051	0.177041	-0.064824	0.046694	0.030586	0.027437	0.146525	0.146525	1.045721	4.415979	0.000000	0.000000	0.000000	0.000000	0.000000	0.000000	0.000000	0.000000	0.000000	0.000000	0.000000	0.000000	0.000000	0.000000	0.000000	0.000000	0.000000	0.000000	0.000000	0.000000	0.000000	0.000000
2.720000	0.002090	-0.540460	0.427625	0.124021	0.026539	0.494882	-0.089823	0.176739	-0.064657	0.046909	0.030785	0.027437	0.146525	0.146525	1.045639	4.416609	0.000000	0.000000	0.000000	0.000000	0.000000	0.000000	0.000000	0.000000	0.000000	0.000000	0.000000	0.000000	0.000000	0.000000	0.000000	0.000000	0.000000	0.000000	0.000000	0.000000	0.000000	0.000000
2.725000	0.001979	-0.540339	0.427401	0.124198	0.026750	0.494722	-0.089603	0.176439	-0.064495	0.047126	0.030986	0.027437	0.146525	0.146525	1.045565	4.417211	0.000000	0.000000	0.000000	0.000000	0.000000	0.000000	0.000000	0.000000	0.000000	0.000000	0.000000	0.000000	0.000000	0.000000	0.000000	0.000000	0.000000	0.000000	0.000000	0.000000	0.000000	0.000000
2.730000	0.001865	-0.540218	0.427183	0.124376	0.026962	0.494562	-0.089391	0.176142	-0.064339	0.047346	0.031188	0.027437	0.146525	0.146525	1.045500	4.417786	0.000000	0.000000	0.000000	0.000000	0.000000	0.000000	0.000000	0.000000	0.000000	0.000000	0.000000	0.000000	0.000000	0.000000	0.000000	0.000000	0.000000	0.000000	0.000000	0.000000	0.000000	0.000000
2.735000	0.001751	-0.540098	0.426974	0.124553	0.027174	0.494401	-0.089188	0.175848	-0.064188	0.047569	0.031391	0.027437	0.146525	0.146525	1.045443	4.418336	0.000000	0.000000	0.000000	0.000000	0.000000	0.000000	0.000000	0.000000	0.000000	0.000000	0.000000	0.000000	0.000000	0.000000	0.000000	0.000000	0.000000	0.000000	0.000000	0.000000	0.000000	0.000000
